<svg version="1.2" xmlns="http://www.w3.org/2000/svg" viewBox="0 0 164 210" width="164" height="210">
	<title>tiro-dark-svg</title>
	<style>
		.s0 { fill: #002d72 } 
		.s1 { fill: #1d9bf0 } 
	</style>
	<g id="Layer_4">
		<g id="Layer">
			<g id="Logo">
				<g id="Layer">
					<path id="Layer" fill-rule="evenodd" class="s0" d="m119.2 168.8c2.1-0.5 4.2-0.2 6 0.9 1.8 1.1 3.1 2.8 3.6 4.9 0.5 2 0.2 4.2-0.9 6-1.1 1.8-2.8 3.1-4.9 3.6q-4.4 1.1-8.9 1.9-4.5 0.9-9 1.4-4.5 0.6-9.1 0.9-4.5 0.3-9.1 0.3-4.7 0-9.4-0.3-4.7-0.3-9.4-0.8-4.7-0.6-9.3-1.4-4.7-0.8-9.2-1.9c-2.1-0.5-3.9-1.7-5-3.5-1.1-1.8-1.4-4-1-6 0.5-2.1 1.8-3.9 3.6-5 1.8-1.1 3.9-1.4 6-1q4.1 1 8.3 1.8 4.2 0.7 8.4 1.2 4.2 0.5 8.4 0.8 4.3 0.2 8.5 0.2 4.1 0 8.2-0.2 4.1-0.3 8.1-0.8 4.1-0.5 8.1-1.2 4-0.8 8-1.8z"/>
					<path id="Layer" fill-rule="evenodd" class="s1" d="m113.2 94.9c2.4-0.1 4.9 0.3 7.2 1.2 2.2 0.9 4.3 2.4 6 4.2 1.6 1.8 2.9 3.9 3.6 6.3 0.8 2.3 1 4.8 0.6 7.3 12-10.8 20.5-26.7 21.7-47.1 0.3-35 6.6-22.9 8 6.8q0.2 4 0 7.9-0.3 4-0.9 7.9-0.7 3.9-1.8 7.7-1.1 3.8-2.6 7.5c-15.8 38.2-64.8 54.6-97.1 26.3q-1.5-1.4-3-2.8-1.4-1.5-2.7-3-1.3-1.6-2.5-3.3-1.1-1.6-2.2-3.4c-3.7-6.4-1.8-7.2 3.1-2.4 15.1 14.7 37.5 18 57.5 11.1-3.5-1.4-6.5-3.9-8.4-7.2-1.9-3.3-2.6-7.1-2-10.9 0.6-3.8 2.4-7.2 5.2-9.8 2.8-2.5 6.5-4 10.3-4.3z"/>
					<path id="Layer" fill-rule="evenodd" class="s1" d="m116.9 26c12.3 8.4 22 21.8 25.8 40.5 1.9 9.2 3.2 16.6 5.9 1.1q0.4-2.9 0.5-5.9 0.1-2.9-0.1-5.8-0.2-3-0.7-5.9-0.4-2.9-1.2-5.7c-4.8-17.9-17.4-30.6-34.3-37.6-39-15.2-83.5-3.5-102.2 36.2q-2.5 5.5-4.3 11.3-1.8 5.8-2.8 11.8-1 5.9-1.2 12-0.2 6.1 0.4 12.1 0.5 6.1 1.8 12.1 1.4 6 3.6 11.8 2.2 5.7 5.1 11.1 3 5.4 6.6 10.4c18.5 24.3 51.2 38.7 98.6 27.2 2-0.5 3.8-1.7 4.9-3.5 1.1-1.8 1.4-4 0.9-6-0.5-2.1-1.7-3.8-3.5-4.9-1.8-1.1-4-1.4-6-0.9-40.2 9.7-67.3-1.8-82.3-21.5q-3-4-5.4-8.5-2.4-4.4-4.2-9.1-1.7-4.7-2.9-9.7-1.1-4.9-1.5-9.9-0.4-5-0.3-10 0.2-5.1 1-10 0.9-4.9 2.3-9.7 1.5-4.8 3.6-9.4c12.9-27.6 44.4-39.2 71.8-32.5-5.9 2.3-9.8 7.8-10 14.2-0.2 6.3 3.5 12.1 9.3 14.6 5.8 2.6 12.5 1.4 17.1-3 4.6-4.3 6-11 3.7-16.9z"/>
					<path id="Layer" fill-rule="evenodd" class="s1" d="m48 54.6q-0.8 0-1.6 0.1-0.8 0.1-1.6 0.3-0.9 0.2-1.6 0.5-0.8 0.3-1.5 0.6c5.3-12.2 13.8-22.8 25.1-29.1 5.8-3.3 12.8-8.8-2.9-3.9-45.2 14-55.9 84.8-15.9 111 14.8 9.6 14 3.8 8.5-0.3-13.5-9.7-20.5-28-21.2-44.3q-0.1-1.7-0.1-3.4 0.1-1.7 0.1-3.4 0.1-1.7 0.3-3.3 0.2-1.7 0.4-3.4c2.6 4.3 7.3 6.8 12.3 6.8 5-0.1 9.5-2.9 12-7.2 2.4-4.4 2.4-9.7-0.1-14-2.5-4.3-7.2-7-12.2-7z"/>
					<path id="Layer" fill-rule="evenodd" class="s0" d="m99.9 193.3c2.1-0.2 4.2 0.5 5.8 1.8 1.6 1.4 2.6 3.3 2.8 5.4 0.2 2.1-0.5 4.2-1.8 5.8-1.4 1.6-3.3 2.6-5.4 2.8q-6.7 0.6-14 0.6-7.1 0-14.1-0.7c-2.1-0.1-4-1.2-5.4-2.8-1.3-1.6-2-3.7-1.8-5.8 0.2-2.1 1.3-4 2.9-5.3 1.6-1.4 3.7-2 5.8-1.8q6.5 0.6 12.7 0.6 6 0 12.5-0.6z"/>
				</g>
				<path id="Layer" class="s1" d="m104.9 165.5q2.5-0.3 4.9-0.8 2.5-0.5 4.9-1.1 2.5-0.6 4.9-1.3 2.4-0.8 4.8-1.6 1.9-0.8 3.9-1.6 1.9-0.9 3.8-1.8 1.9-1 3.7-2 1.8-1.1 3.6-2.2c3.5-2.1 5.2-7.1 2.8-10.7-2.2-3.5-7-5.1-10.7-2.8-2.1 1.3-4.2 2.6-6.4 3.7q-1.6 0.9-3.2 1.6-0.5 0.2-0.9 0.4c-1.3 0.6 1.9-0.8 0.6-0.3q-0.9 0.4-1.7 0.7-2.4 0.8-4.7 1.5-2.4 0.7-4.8 1.3-2.4 0.6-4.8 1.1-2.5 0.4-4.9 0.8-0.7 0.2-1.4 0.5-0.7 0.4-1.3 0.8-0.6 0.5-1.1 1.1-0.5 0.5-0.9 1.2-0.4 0.7-0.6 1.4-0.3 0.8-0.4 1.5-0.1 0.8 0 1.6 0 0.8 0.2 1.5c1.4 4.4 5.3 6.3 9.7 5.5z"/>
			</g>
			<g id="Layer">
				<path id="Layer" class="s1" d="m196.9 162.4h-23v-56.9q1.6-0.3 4.6-0.7 0.8-0.1 1.6-0.2 0.7-0.1 1.5-0.2 0.8 0 1.5 0 0.8-0.1 1.6-0.1 6.5 0 9.3 2.3 2.9 2.2 2.9 8.6zm-23-29h23v63.7q-0.5 0.2-1.1 0.3-0.5 0.1-1.1 0.2-0.5 0.1-1.1 0.2-0.5 0.1-1.1 0.1-0.8 0.1-1.5 0.2-0.8 0.1-1.6 0.1-0.8 0.1-1.5 0.1-0.8 0-1.6 0-6.8 0-9.6-2.4-2.8-2.4-2.8-8.4z"/>
				<path id="Layer" class="s1" d="m284.3 150.4v14.2h-22.5v-13.5q0-5.6-3.2-8.2-1-0.7-2-1.2-1-0.5-2.1-0.9-1.1-0.3-2.2-0.5-1.1-0.1-2.3 0-0.9-0.1-1.7 0-0.9 0.1-1.8 0.2-0.9 0.1-1.7 0.3-0.9 0.2-1.7 0.4-0.8 0.3-1.5 0.5-0.7 0.3-1.4 0.6-0.8 0.3-1.5 0.6-0.7 0.3-1.4 0.7v21h-22.3v-23.6q0-0.8 0.1-1.6 0-0.8 0.2-1.6 0.2-0.8 0.6-1.6 0.3-0.8 0.7-1.5 0.4-0.6 1-1.3 0.5-0.6 1.1-1.1 0.5-0.6 1.2-1.1 0.6-0.5 1.3-0.9 1.4-0.9 2.9-1.8 1.5-0.8 3.1-1.5 1.5-0.7 3.1-1.2 1.6-0.6 3.3-1 2-0.6 4.1-1 2-0.4 4.1-0.7 2.1-0.3 4.2-0.4 2.1-0.1 4.2-0.1 16.3 0 25.2 7.2 8.9 7.1 8.9 20.6zm-69.3 7.2h22.3v39.6q-0.5 0.1-1 0.2-0.5 0.2-1.1 0.3-0.5 0.1-1 0.1-0.5 0.1-1.1 0.2-0.7 0.1-1.4 0.2-0.8 0-1.5 0.1-0.8 0-1.5 0.1-0.7 0-1.5 0-6.3 0-9.3-2.3-2.9-2.3-2.9-8.1zm46.8 0h22.5v39.5q-0.5 0.1-1 0.3-0.6 0.1-1.1 0.2-0.5 0.1-1.1 0.2-0.5 0.1-1 0.1-0.8 0.1-1.5 0.2-0.7 0.1-1.5 0.1-0.7 0.1-1.4 0.1-0.8 0-1.5 0-6.4 0-9.4-2.2-3-2.3-3-8.2z"/>
				<path id="Layer" class="s1" d="m322.6 161.2h-22.2v-54.2q1.6-0.4 4.3-0.9 0.7-0.2 1.4-0.3 0.7-0.1 1.4-0.1 0.7-0.1 1.5-0.1 0.7-0.1 1.4-0.1 6.5 0 9.4 2.3 2.8 2.3 2.8 8.3zm-22.2-3.8h22.2v16.2q0 4.2 2.8 6.2 2.7 1.9 7.7 1.9 0.6 0 1.2 0 0.6 0 1.2-0.1 0.6-0.1 1.2-0.2 0.7-0.1 1.3-0.2 0.5-0.1 1.1-0.2 0.6-0.2 1.1-0.3 0.6-0.2 1.1-0.4 0.6-0.2 1.1-0.4 0.3 0.4 0.6 0.8 0.3 0.4 0.6 0.8 0.3 0.4 0.5 0.9 0.3 0.4 0.5 0.8 0.3 0.6 0.4 1.1 0.2 0.6 0.4 1.1 0.1 0.6 0.1 1.2 0.1 0.6 0.1 1.2 0 1.2-0.3 2.4-0.2 1.2-0.8 2.3-0.6 1.1-1.3 2.1-0.8 0.9-1.8 1.6-4.3 3.3-14.2 3.3-12.7 0-19.7-5.7-7.1-5.7-7.1-18.7zm14.2-13.8v-17.2h29q0.3 0.4 0.5 0.9 0.2 0.4 0.4 0.8 0.2 0.5 0.3 0.9 0.2 0.5 0.3 0.9 0.2 0.6 0.4 1.2 0.1 0.6 0.2 1.3 0.1 0.6 0.2 1.2 0 0.7 0 1.3 0 4.5-2 6.6-0.6 0.6-1.2 1-0.7 0.4-1.4 0.7-0.7 0.2-1.4 0.4-0.8 0.1-1.6 0z"/>
				<path id="Layer" class="s1" d="m367.2 171.7l-0.9-15.1 37.4-5.9q-0.1-1.1-0.4-2.2-0.3-1.1-0.7-2.1-0.5-1-1.1-1.9-0.6-0.9-1.4-1.7-3.3-3.6-9.8-3.6-1.6 0-3.2 0.2-1.5 0.3-3 0.9-1.4 0.6-2.7 1.5-1.3 0.9-2.5 2-4.5 4.6-4.8 13.1l0.8 10.4q1.3 8.3 7.1 11.8 1.5 0.9 3.1 1.6 1.7 0.7 3.4 1.2 1.7 0.4 3.5 0.6 1.8 0.2 3.6 0.2 1.5 0 3-0.1 1.5-0.1 3-0.4 1.5-0.2 3-0.5 1.4-0.4 2.9-0.8 1.2-0.4 2.3-0.8 1.2-0.4 2.3-0.9 1.1-0.5 2.2-1 1.2-0.5 2.2-1.1 0.6 0.3 1.1 0.7 0.6 0.5 1 0.9 0.5 0.5 0.9 1 0.4 0.6 0.7 1.2 0.4 0.5 0.7 1.2 0.2 0.6 0.4 1.2 0.2 0.7 0.3 1.3 0.1 0.7 0.1 1.4 0 1.1-0.2 2.1-0.3 1.1-0.7 2.1-0.5 1-1.2 1.8-0.6 0.9-1.5 1.5-1 0.9-2.2 1.6-1.2 0.7-2.4 1.3-1.3 0.6-2.6 1-1.2 0.4-2.6 0.7-1.7 0.4-3.5 0.7-1.8 0.3-3.6 0.4-1.8 0.2-3.6 0.3-1.8 0.1-3.6 0.1-2.6 0-5.3-0.2-2.7-0.3-5.4-0.8-2.6-0.6-5.2-1.4-2.5-0.9-5-2-2.2-1-4.3-2.4-2.1-1.4-3.9-3.1-1.9-1.6-3.5-3.6-1.6-1.9-2.8-4-5.3-8.8-5.3-21.9-0.1-2.2 0.1-4.3 0.2-2.1 0.6-4.3 0.4-2.1 1-4.1 0.6-2.1 1.4-4.1 0.7-1.6 1.6-3.2 0.8-1.6 1.9-3.1 1-1.5 2.2-2.8 1.2-1.4 2.6-2.6 1.3-1.1 2.7-2.1 1.3-1 2.8-1.9 1.5-0.9 3.1-1.6 1.5-0.7 3.2-1.2 1.6-0.6 3.3-1 1.7-0.5 3.4-0.8 1.7-0.2 3.4-0.4 1.8-0.1 3.5-0.1 2.4-0.1 4.7 0.2 2.4 0.2 4.7 0.7 2.3 0.6 4.5 1.4 2.2 0.8 4.3 1.8 1.9 1 3.6 2.2 1.7 1.2 3.2 2.6 1.6 1.5 2.9 3.1 1.4 1.6 2.5 3.4 1.1 1.8 1.9 3.8 0.9 2 1.4 4.1 0.6 2.1 0.8 4.2 0.3 2.2 0.2 4.3 0 4.7-2.5 7.1-0.8 0.7-1.6 1.2-0.8 0.5-1.7 0.9-0.9 0.4-1.9 0.6-0.9 0.3-1.9 0.4z"/>
				<path id="Layer" class="s1" d="m459.4 144.3v18.9h-22.3v-21.6q-0.1-0.9 0.1-1.9 0.1-0.9 0.3-1.8 0.3-0.9 0.7-1.8 0.4-0.9 0.9-1.7 0.6-0.7 1.2-1.5 0.7-0.7 1.4-1.4 0.7-0.6 1.5-1.2 0.7-0.6 1.6-1.1 1.4-0.8 2.8-1.5 1.5-0.7 3-1.3 1.5-0.6 3-1.1 1.6-0.5 3.2-0.8 1.8-0.5 3.6-0.8 1.8-0.3 3.7-0.5 1.8-0.3 3.7-0.4 1.8-0.1 3.7-0.1 15.4 0 15.4 10.3 0 0.6 0 1.2-0.1 0.5-0.2 1.1-0.1 0.6-0.2 1.1-0.1 0.6-0.3 1.1-0.1 0.5-0.3 1-0.2 0.4-0.4 0.9-0.2 0.4-0.4 0.9-0.2 0.4-0.5 0.9-1.5-0.3-3.7-0.6-0.6 0-1.2-0.1-0.6 0-1.2 0-0.5-0.1-1.1-0.1-0.6 0-1.2 0-1.2 0-2.3 0.1-1.2 0-2.3 0.2-1.1 0.1-2.3 0.3-1.1 0.2-2.2 0.5-1 0.2-2 0.5-1 0.3-1.9 0.6-1 0.4-1.9 0.8-1 0.4-1.9 0.9zm-22.3 13.2l22.3 0.4v39.3q-0.5 0.1-1 0.2-0.6 0.2-1.1 0.3-0.5 0.1-1 0.1-0.6 0.1-1.1 0.2-0.7 0.1-1.5 0.2-0.7 0-1.5 0.1-0.7 0-1.4 0.1-0.8 0-1.5 0-6.3 0-9.3-2.3-2.9-2.3-2.9-8.1z"/>
				<path id="Layer" fill-rule="evenodd" class="s1" d="m523.4 122.6q15.7 0 25.1 6.6 9.3 6.5 9.3 20.3v34.2q0.1 0.8 0 1.7-0.1 0.8-0.4 1.6-0.2 0.7-0.6 1.5-0.4 0.7-0.9 1.3-0.5 0.7-1.1 1.2-0.6 0.6-1.2 1.1-0.7 0.5-1.3 0.9-0.7 0.5-1.4 0.8-1.3 0.8-2.7 1.4-1.4 0.7-2.8 1.2-1.4 0.6-2.8 1-1.5 0.4-3 0.7-1.8 0.5-3.7 0.8-1.9 0.3-3.9 0.5-1.9 0.2-3.8 0.3-1.9 0.1-3.9 0-15.4 0-24.5-6-9.1-6-9.1-18 0-10.2 6.3-15.7 6.3-5.6 18.9-6.8l20.1-2.1v-1.8q0-5.1-4-7.4-4.1-2.3-11.4-2.3-1.5 0-2.9 0.1-1.4 0.1-2.8 0.3-1.4 0.2-2.8 0.4-1.4 0.3-2.8 0.6-1.3 0.3-2.5 0.7-1.3 0.3-2.5 0.7-1.2 0.4-2.5 0.8-1.2 0.5-2.4 1-0.5-0.4-0.9-0.8-0.5-0.4-0.9-0.9-0.4-0.4-0.7-1-0.3-0.5-0.6-1-0.3-0.6-0.5-1.3-0.3-0.6-0.4-1.2-0.2-0.7-0.3-1.4-0.1-0.7-0.1-1.3 0-6.4 7-9.2 1.2-0.5 2.5-0.9 1.2-0.4 2.5-0.8 1.3-0.3 2.6-0.6 1.3-0.2 2.6-0.4 1.4-0.2 2.8-0.3 1.4-0.2 2.8-0.3 1.4-0.1 2.8-0.2 1.4 0 2.8 0zm0.9 60.4q0.9 0 1.8-0.1 0.8 0 1.7-0.1 0.8-0.1 1.7-0.2 0.8-0.1 1.7-0.3 0.6-0.1 1.3-0.3 0.6-0.1 1.2-0.3 0.6-0.2 1.2-0.5 0.6-0.2 1.2-0.5v-14.5l-12.7 1.2q-1 0-2.1 0.2-1.1 0.1-2.1 0.4-1 0.3-2 0.6-1 0.4-1.9 0.9-0.7 0.4-1.3 1-0.6 0.6-1 1.3-0.4 0.7-0.6 1.5-0.2 0.9-0.2 1.7 0 0.8 0.2 1.6 0.2 0.9 0.6 1.6 0.3 0.8 0.9 1.4 0.5 0.7 1.2 1.2 2.9 2.2 9.2 2.2z"/>
				<path id="Layer" class="s1" d="m612.6 140.4q-1.9 0-3.8 0.3-1.9 0.3-3.7 1-1.8 0.7-3.4 1.7-1.6 1-3 2.4-5.8 5.3-5.8 15.6 0 10.1 5.5 15.2 1.5 1.3 3.1 2.3 1.7 1 3.5 1.7 1.8 0.6 3.7 0.9 1.9 0.3 3.8 0.3 1.1 0 2.2-0.1 1.1-0.1 2.2-0.2 1.1-0.2 2.1-0.4 1.1-0.3 2.2-0.6 0.8-0.3 1.6-0.6 0.8-0.3 1.6-0.7 0.8-0.3 1.6-0.7 0.8-0.4 1.6-0.8 0.6 0.4 1.1 0.8 0.6 0.5 1 1 0.5 0.5 1 1 0.4 0.6 0.8 1.2 0.4 0.6 0.6 1.2 0.3 0.7 0.5 1.4 0.1 0.7 0.2 1.4 0.1 0.6 0.1 1.3 0 5.6-6.1 9.1-6 3.5-16.7 3.5-2.7 0-5.4-0.2-2.7-0.3-5.4-0.8-2.6-0.5-5.2-1.4-2.6-0.8-5-1.9-2.2-1-4.2-2.4-2-1.3-3.8-3-1.8-1.6-3.3-3.5-1.5-1.9-2.8-4-4.9-8.6-4.9-21 0-13.1 5.4-21.7 1.3-2.1 2.9-3.9 1.6-1.9 3.4-3.5 1.8-1.7 3.9-3 2-1.4 4.2-2.4 2.3-1.1 4.7-1.9 2.4-0.8 4.8-1.4 2.5-0.5 5-0.8 2.5-0.2 5.1-0.2 10.4 0 16.3 3.8 6 3.7 6 9.3 0 0.7-0.1 1.3 0 0.6-0.2 1.3-0.2 0.6-0.4 1.2-0.3 0.6-0.6 1.1-0.3 0.6-0.6 1.1-0.4 0.5-0.7 0.9-0.4 0.5-0.8 1-0.4 0.4-0.8 0.9-0.8-0.4-1.6-0.8-0.8-0.4-1.6-0.7-0.9-0.4-1.7-0.7-0.8-0.3-1.7-0.6-1-0.3-2-0.6-1.1-0.2-2.1-0.4-1.1-0.2-2.1-0.2-1.1-0.1-2.2-0.1z"/>
				<path id="Layer" class="s1" d="m667.7 161.2h-22.2v-54.2q1.6-0.4 4.3-0.9 0.7-0.2 1.4-0.3 0.7-0.1 1.4-0.1 0.7-0.1 1.5-0.1 0.7-0.1 1.4-0.1 6.5 0 9.4 2.3 2.8 2.3 2.8 8.3zm-22.2-3.8h22.2v16.2q0 4.2 2.8 6.2 2.7 1.9 7.7 1.9 0.6 0 1.2 0 0.6 0 1.2-0.1 0.6-0.1 1.2-0.2 0.7-0.1 1.3-0.2 0.5-0.1 1.1-0.2 0.6-0.2 1.1-0.3 0.6-0.2 1.1-0.4 0.6-0.2 1.1-0.4 0.3 0.4 0.6 0.8 0.3 0.4 0.6 0.8 0.3 0.4 0.5 0.9 0.3 0.4 0.5 0.8 0.3 0.6 0.4 1.1 0.2 0.6 0.4 1.1 0.1 0.6 0.1 1.2 0.1 0.6 0.1 1.2 0 1.2-0.3 2.4-0.3 1.2-0.8 2.3-0.6 1.1-1.3 2.1-0.8 0.9-1.8 1.6-4.3 3.3-14.2 3.3-12.7 0-19.7-5.7-7.1-5.7-7.1-18.7zm14.2-13.8v-17.2h29q0.3 0.4 0.5 0.9 0.2 0.4 0.4 0.8 0.2 0.5 0.3 0.9 0.2 0.5 0.3 0.9 0.2 0.6 0.4 1.2 0.1 0.6 0.2 1.3 0.1 0.6 0.1 1.2 0.1 0.7 0.1 1.3 0 4.5-2.1 6.6-0.5 0.6-1.1 1-0.7 0.4-1.4 0.7-0.7 0.2-1.4 0.4-0.8 0.1-1.6 0z"/>
				<path id="Layer" class="s1" d="m702.2 104q-0.1-1.2 0.1-2.4 0.3-1.1 0.7-2.3 0.5-1.1 1.2-2.1 0.6-1 1.5-1.8c1.2-1.1 2.6-2 4.2-2.6 1.5-0.6 3.2-0.9 4.8-0.9 1.7 0 3.3 0.3 4.9 0.9 1.5 0.6 2.9 1.5 4.1 2.6q0.9 0.9 1.6 1.9 0.6 0.9 1.1 2.1 0.4 1.1 0.6 2.2 0.2 1.2 0.2 2.4c-0.1 2.5-0.9 4.9-2.3 6.9-1.4 2-3.4 3.5-5.6 4.4-2.3 1-4.8 1.2-7.2 0.7-2.4-0.5-4.6-1.7-6.4-3.4q-0.9-0.8-1.5-1.8-0.7-1-1.1-2.1-0.5-1.1-0.7-2.3-0.3-1.2-0.2-2.4zm23.7 65.1h-22.4v-43.3q0.5-0.2 1-0.3 0.6-0.2 1.1-0.3 0.5-0.1 1-0.2 0.5-0.1 1.1-0.1 0.7-0.2 1.4-0.3 0.8 0 1.5-0.1 0.8-0.1 1.5-0.1 0.8 0 1.5 0 6.5 0 9.4 2.2 2.9 2.2 2.9 8.4zm-22.4-11.7h22.4v39.7q-0.5 0.2-1 0.3-0.6 0.1-1.1 0.2-0.5 0.2-1 0.2-0.5 0.1-1 0.2-0.8 0.1-1.5 0.1-0.7 0.1-1.5 0.2-0.7 0-1.4 0-0.8 0.1-1.5 0.1-6.5 0-9.4-2.3-3-2.3-3-8.2z"/>
				<path id="Layer" class="s1" d="m799.2 123.3q1 0 2.1 0.1 1 0.1 2 0.4 0.9 0.2 1.9 0.6 0.9 0.4 1.8 1 3.1 2 3.1 6.8-0.1 1.1-0.2 2.2-0.1 1.1-0.3 2.1-0.2 1.1-0.5 2.1-0.2 1.1-0.5 2.1-1.5 5.7-4 13.3-2.5 7.5-5.5 15.4-3 7.8-6.1 14.7-3 6.9-5.4 11.4-0.6 0.4-1.2 0.7-0.7 0.4-1.3 0.6-0.7 0.3-1.4 0.5-0.7 0.2-1.4 0.4-1 0.2-2 0.4-0.9 0.2-2 0.3-1 0.2-2 0.2-1 0.1-2 0.1-1.1 0-2.2-0.1-1.2 0-2.3-0.2-1.1-0.2-2.2-0.5-1.1-0.2-2.1-0.6-0.8-0.2-1.6-0.7-0.8-0.4-1.4-0.9-0.7-0.5-1.2-1.2-0.6-0.7-1-1.4-1.7-3.2-4.1-8.9-2.4-5.8-5.1-13.1-2.8-7.3-5.5-15.1-2.7-7.9-5-15.1-2.2-7.3-3.6-12.7 0.6-0.6 1.2-1 0.6-0.5 1.2-0.9 0.6-0.5 1.3-0.8 0.7-0.4 1.4-0.7 0.8-0.4 1.6-0.7 0.8-0.2 1.7-0.4 0.8-0.2 1.7-0.3 0.8-0.1 1.7-0.1 1 0 2 0.1 1 0.1 2 0.4 1 0.2 1.9 0.6 0.9 0.4 1.8 0.9 3 2 4.4 7.4l6.8 24q1.2 4.2 2.5 8.5 1.2 4.2 2.3 7.8 1.1 3.6 1.8 6.2h0.6q3.6-12.2 7.3-26.2 3.7-14 6.6-27.2 1.2-0.7 2.5-1.1 1.2-0.5 2.6-0.8 1.3-0.3 2.6-0.4 1.4-0.2 2.7-0.2z"/>
				<path id="Layer" fill-rule="evenodd" class="s1" d="m893.7 161.1q0 11.8-4.7 20.4-1.2 2.2-2.6 4.1-1.4 1.9-3.1 3.6-1.7 1.7-3.7 3.1-1.9 1.5-4 2.6-8.6 4.7-20.2 4.7-2.6 0-5.2-0.2-2.6-0.3-5.2-0.9-2.5-0.6-5-1.4-2.4-0.9-4.8-2.1-2.1-1.1-4-2.6-2-1.4-3.7-3.1-1.7-1.6-3.1-3.6-1.5-1.9-2.6-4-4.8-8.7-4.8-20.6 0-11.9 4.9-20.5 1.1-2.1 2.6-4 1.5-1.9 3.2-3.6 1.7-1.7 3.6-3.1 2-1.4 4.1-2.6c3.1-1.5 6.3-2.7 9.7-3.5 3.4-0.8 6.8-1.2 10.3-1.2 3.5 0 6.9 0.4 10.3 1.2 3.4 0.8 6.7 2 9.8 3.5q2.1 1.2 4 2.6 1.9 1.5 3.6 3.2 1.7 1.7 3.2 3.6 1.4 2 2.6 4.1 1.2 2.3 2.2 4.8 0.9 2.4 1.5 5 0.6 2.6 0.9 5.2 0.3 2.6 0.2 5.3zm-38.3-20.8q-1.7-0.1-3.2 0.2-1.6 0.4-3.1 1.1-1.5 0.7-2.7 1.7-1.3 1.1-2.3 2.4-4.1 5.4-4.1 15.4 0 10.1 4.1 15.5c1.3 1.6 3.1 3 5 3.9 2 0.9 4.1 1.4 6.3 1.4 2.2 0 4.3-0.5 6.3-1.4 1.9-1 3.6-2.3 5-4q4.1-5.5 4.1-15.4 0-9.8-4.1-15.3-1-1.4-2.2-2.4-1.3-1.1-2.8-1.8-1.4-0.7-3.1-1.1-1.6-0.3-3.2-0.2z"/>
			</g>
		</g>
	</g>
</svg>