<svg id="Layer_1" data-name="Layer 1" xmlns="http://www.w3.org/2000/svg" viewBox="0 0 141.73 141.73"><defs><style>.cls-1{fill:#fbf9ee;}</style></defs><path class="cls-1" d="M140.88,8.58,118.73,132.33s-3.09,8.58-11.61,4.45L56,93.37l-18.58-10L6.14,71.74s-4.8-1.89-5.27-6,5.42-6.36,5.42-6.36L130.68,5.32S140.88.34,140.88,8.58Z"/><path class="cls-1" d="M52.08,131s-1.49-.15-3.35-6.67-11.3-40.85-11.3-40.85l75.11-52.87s4.33-2.92,4.18,0c0,0,.77.49-1.55,2.92s-59,58.86-59,58.86"/><path class="cls-1" d="M75.61,110,55.37,130.46a3.26,3.26,0,0,1-3.31.49L55.93,93"/></svg>