<svg id="Layer_1" data-name="Layer 1" xmlns="http://www.w3.org/2000/svg" viewBox="0 0 141.73 141.73"><defs><style>.cls-1{fill:#fbf9ee;}</style></defs><path class="cls-1" d="M141.05,72.73a70.19,70.19,0,1,0-93,66.38c1.68-1.21,3.61-2.7,3.61-5.22,0-3.86-.08-13.8-.08-13.8a47,47,0,0,1-7.4.52c-10.95,0-14.42-7-16.06-10.84a19,19,0,0,0-7.89-9.35c-1.81-1.17-2.23-2.53-.13-2.94,9.7-1.81,12.17,10.94,18.65,13,4.63,1.45,10.57.82,13.52-1.08.39-3.89,3.22-7.26,5.57-9-16.47-1.57-26.24-7.26-31.3-16.39l-.55-1L24.71,80l-.38-1a49.39,49.39,0,0,1-2.28-15.9c0-10.54,3.3-14.52,7.74-20.14C26.39,30.92,31,22.71,31,22.71s7.13-1.47,20.61,8.13c7.3-3.12,26.78-3.38,36-.7,5.65-3.71,16-9,20.17-7.51,1.13,1.8,3.57,7.08,1.48,18.67,1.41,2.53,8.78,8,8.81,23.26A60.08,60.08,0,0,1,116.27,79l-.61,2.06s-.34,1-.72,1.9l-.45,1c-4.88,10.68-14.91,14.66-31.1,16.32,5.24,3.29,6.75,7.41,6.75,18.56S90,131.5,90,134.07c0,2.26,1.84,3.89,3.47,5.13A70.25,70.25,0,0,0,141.05,72.73Z"/></svg>