<svg id="Layer_1" data-name="Layer 1" xmlns="http://www.w3.org/2000/svg" viewBox="0 0 141.73 141.73"><defs><style>.cls-1{fill:#fbf9ee;}</style></defs><path class="cls-1" d="M47.57,70.87a23.31,23.31,0,1,1,23.3,23.31,23.31,23.31,0,0,1-23.3-23.31M35,70.87A35.91,35.91,0,1,0,70.87,35,35.9,35.9,0,0,0,35,70.87M99.81,33.54a8.39,8.39,0,1,0,8.39-8.38h0a8.39,8.39,0,0,0-8.39,8.38M42.62,127.78c-6.81-.3-10.52-1.44-13-2.4a23.17,23.17,0,0,1-13.27-13.26c-1-2.46-2.1-6.17-2.41-13-.34-7.37-.41-9.58-.41-28.24S13.62,50,14,42.64c.31-6.81,1.45-10.52,2.41-13A21.57,21.57,0,0,1,21.6,21.6a21.63,21.63,0,0,1,8-5.24c2.46-.95,6.16-2.09,13-2.4,7.37-.34,9.58-.41,28.24-.41s20.89.07,28.25.41c6.81.31,10.52,1.45,13,2.4a23.26,23.26,0,0,1,13.27,13.29c1,2.46,2.1,6.16,2.41,13,.34,7.37.41,9.58.41,28.24s-.07,20.89-.41,28.25c-.31,6.81-1.45,10.52-2.41,13a23.19,23.19,0,0,1-13.26,13.28c-2.47,1-6.17,2.1-13,2.4-7.37.34-9.58.41-28.24.41s-20.88-.07-28.25-.41M42.05,1.37a51.31,51.31,0,0,0-17,3.25,34.31,34.31,0,0,0-12.38,8.07A34.26,34.26,0,0,0,4.62,25.08a51.25,51.25,0,0,0-3.25,17C1,49.49,1,51.89,1,70.88S1,92.25,1.37,99.71a51.5,51.5,0,0,0,3.25,17,34.31,34.31,0,0,0,8.07,12.38,34.18,34.18,0,0,0,12.38,8.07,51.37,51.37,0,0,0,17,3.23c7.44.33,9.83.42,28.82.42s21.37-.08,28.83-.42a51.29,51.29,0,0,0,17-3.24,35.75,35.75,0,0,0,20.44-20.46,50.65,50.65,0,0,0,3.24-17c.33-7.44.42-9.84.42-28.83s-.07-21.37-.42-28.83a51,51,0,0,0-3.25-17A34.18,34.18,0,0,0,129,12.69a34.23,34.23,0,0,0-12.38-8.07,51.31,51.31,0,0,0-17-3.25C92.24,1,89.85,1,70.85,1S49.49,1,42,1.37"/></svg>